<svg xmlns="http://www.w3.org/2000/svg" viewBox="0 0 133.85 352.3"><defs><style>.cls-1{fill:#7c655a;}.cls-1,.cls-16,.cls-17,.cls-2,.cls-3,.cls-4,.cls-5,.cls-6,.cls-9{fill-rule:evenodd;}.cls-2,.cls-8{fill:#d4af9e;}.cls-3{fill:#4e8a81;}.cls-10,.cls-4{fill:#bf9788;}.cls-18,.cls-5{fill:#fff;}.cls-6{fill:#383e49;}.cls-7{fill:#1f2430;}.cls-9{fill:#2d2423;}.cls-11{fill:#553121;}.cls-12{fill:#3c2e24;}.cls-13{fill:#858686;}.cls-14{fill:#9b9b9b;}.cls-15,.cls-16{fill:none;stroke:#2d2423;stroke-miterlimit:10;stroke-width:2px;}.cls-17{fill:#f0ebeb;}.cls-18{font-size:36px;font-family:DDCHardware-Regular, DDC Hardware;}</style></defs><title>Asset 7</title><g id="Layer_2" data-name="Layer 2"><g id="Layer_1-2" data-name="Layer 1"><path class="cls-1" d="M62.65,1.93S-3.48-14.29,2.05,165.42c0,0-.65,18.73,62,16.46Z"/><path class="cls-1" d="M68.9,1.93S135-14.29,129.5,165.42c0,0,.65,18.73-62,16.46Z"/><path class="cls-2" d="M88.67,146.94l24.07,42.41a11.32,11.32,0,0,0,15.4,4.25h0a11.34,11.34,0,0,0,4.25-15.4l-24.07-42.41C101.32,123.46,82,135.25,88.67,146.94Z"/><path class="cls-2" d="M126.65,175.09a11.27,11.27,0,0,0-14.76,6.11L98.8,214l-1.41,3.41c-7.23,17.43,14.28,23.36,20.51,8.29l1.41-3.41,13.45-32.41A11.34,11.34,0,0,0,126.65,175.09Z"/><path class="cls-2" d="M45.18,148.56,21.11,191a11.32,11.32,0,0,1-15.4,4.25h0a11.34,11.34,0,0,1-4.25-15.4l24.08-42.41C32.53,125.08,51.82,136.87,45.18,148.56Z"/><path class="cls-2" d="M36.46,219l-1.41-3.41L22,182.82a11.3,11.3,0,1,0-20.87,8.66l13.45,32.41L16,227.3C22.18,242.37,43.69,236.44,36.46,219Z"/><path class="cls-3" d="M86.68,143.8l11.95,21.06L118.47,153l-11.7-20.62C99.77,120.06,80.05,132.11,86.68,143.8Z"/><path class="cls-3" d="M48.51,143.8,36.16,165.56,16.27,153.68l12.1-21.33C35.36,120,55.14,132.11,48.51,143.8Z"/><path class="cls-1" d="M77.63,8.94c4,19.56,29.73,43.77,42,45.11C121.72,25.4,95.89,3.21,77.63,8.94Z"/><path class="cls-4" d="M75.08,79.86c-2.89,7.36-12.16,7.23-15,0A10.73,10.73,0,0,0,75.08,79.86Z"/><path class="cls-5" d="M105.5,342.21c-2.59-4.77-8.94-8.25-13.75-15.42-4.34-7.52-13.23-13.28-16.7-1.23-1.69,5.87-2.48,10.07-1.87,13.13a4.94,4.94,0,0,1,1.23,2.21,4.39,4.39,0,0,1,1.28,1.22,4.29,4.29,0,0,1,1.24,1.07,4.36,4.36,0,0,1,2,1.19,6.08,6.08,0,0,1,.61,0A4.66,4.66,0,0,1,83,345.69c.15,0,.3,0,.46,0a4.63,4.63,0,0,1,3.37,1.3,4.31,4.31,0,0,1,1.53.81,4.44,4.44,0,0,1,3.1,1.72,6,6,0,0,1,.75-.05,4.64,4.64,0,0,1,3.54,1.47c.17,0,.34,0,.52,0a6,6,0,0,1,.87.07,4.53,4.53,0,0,1,4-2.26,4.91,4.91,0,0,1,2-.55.43.43,0,0,1,0-.05A5.15,5.15,0,0,1,105.5,342.21Z"/><path class="cls-6" d="M105.47,342.15a9.45,9.45,0,0,1,.82,1.87c2.91,9.4-6.93,8.94-13,7.47-6.37-1.53-9.42-5.33-12.91-6.34-4.6-1.32-6.75-3.4-7.26-6.9,4.88,3.8,12.21,6.91,20,9.49A17.25,17.25,0,0,1,105.47,342.15Z"/><path class="cls-7" d="M102.15,338.19a.71.71,0,0,0,1-.15.72.72,0,0,0-.16-1A7.5,7.5,0,0,0,100.5,336h0a.69.69,0,0,0,.55-.19.54.54,0,0,0,.19-.18.71.71,0,0,0-.15-1,11.56,11.56,0,0,0-3.54-1.46l.34,0a.72.72,0,0,0,.78-.64.72.72,0,0,0-.65-.78,7.35,7.35,0,0,0-4.16.76h-.1a12,12,0,0,0-6.56,1,.71.71,0,0,0,.69,1.25,9.13,9.13,0,0,1,4.12-.9,14.15,14.15,0,0,0-2.21,3,.72.72,0,0,0-.17.9.71.71,0,0,0,1,.28,10.25,10.25,0,0,1,3.8-1.09,15.41,15.41,0,0,0-2.1,3,.72.72,0,0,0,.26,1,.73.73,0,0,0,1-.26,12.23,12.23,0,0,1,2.5-3.28,6.57,6.57,0,0,1,.65-.5,11.16,11.16,0,0,1,5.44,1.3ZM98,334.76a6.81,6.81,0,0,0-1.68.69,15.92,15.92,0,0,0-4.19.5,9,9,0,0,1,1.33-1.43,6.61,6.61,0,0,1,.74-.53A20.55,20.55,0,0,1,98,334.76Z"/><path class="cls-5" d="M61.89,325.13c-3.47-12.05-12.36-6.28-16.7,1.24-4.87,7.25-11.31,10.72-13.85,15.59l.29.33a5.19,5.19,0,0,1,2.76,4.46v.18l.33.28a4.44,4.44,0,0,1,3.36,2.1,5.52,5.52,0,0,1,.72-.06,5,5,0,0,1,2.13.45,5.6,5.6,0,0,1,1.46-.2,4.88,4.88,0,0,1,2.27.53,5.74,5.74,0,0,1,1.44-.56,4.54,4.54,0,0,1,2.61-1.16,4.53,4.53,0,0,1,3.49-1.63,4.36,4.36,0,0,1,1.7-1.34,4.39,4.39,0,0,1,2.27-1.27,4.51,4.51,0,0,1,2.9-1.27,4.46,4.46,0,0,1,2.07-.87,4.62,4.62,0,0,1,1.43-1.77,4.22,4.22,0,0,1,.57-.63,5.19,5.19,0,0,1,.54-1.08C64.38,335.37,63.62,331.14,61.89,325.13Z"/><path class="cls-6" d="M31.46,341.73a11.65,11.65,0,0,0-.81,1.86c-2.91,9.4,6.93,8.94,13,7.48,6.37-1.54,9.42-5.33,12.91-6.34,4.6-1.33,6.72-3.4,7.23-6.9-4.88,3.8-12.18,6.91-20,9.48A17.26,17.26,0,0,0,31.46,341.73Z"/><path class="cls-7" d="M34.79,337.77a11.05,11.05,0,0,1,5.44-1.3,5.34,5.34,0,0,1,.65.5,12.35,12.35,0,0,1,2.5,3.27.72.72,0,1,0,1.24-.72,16,16,0,0,0-2.1-3,10.26,10.26,0,0,1,3.8,1.1.72.72,0,0,0,.8-1.18,13.91,13.91,0,0,0-2.21-3,9.13,9.13,0,0,1,4.12.9.72.72,0,0,0,1-.28.73.73,0,0,0-.28-1,12,12,0,0,0-6.56-1h-.1a7.35,7.35,0,0,0-4.16-.75.71.71,0,1,0,.13,1.42l.34,0a11.56,11.56,0,0,0-3.54,1.46.71.71,0,0,0-.15,1,.81.81,0,0,0,.19.18.72.72,0,0,0,.55.18h0A7.71,7.71,0,0,0,34,336.61a.72.72,0,1,0,.84,1.16Zm8-4.21a8.19,8.19,0,0,1,.74.53,9.94,9.94,0,0,1,1.33,1.43,16.34,16.34,0,0,0-4.19-.49,6.81,6.81,0,0,0-1.68-.69A20.52,20.52,0,0,1,42.74,333.56Z"/><path class="cls-2" d="M97.31,250.32l-4,78.58c-3.28-3-6.62-1.26-10.17,2.81-2.51,2.88-9.12.77-9.65-2.64l.13-77.59C73.6,248,97.31,250.32,97.31,250.32Z"/><path class="cls-2" d="M39.28,250.18l4,78.58c3.28-3,6.61-1.26,10.16,2.81,2.51,2.88,9.12.77,9.65-2.64L63,251.34C63,247.9,39.28,250.18,39.28,250.18Z"/><path class="cls-3" d="M98.67,263.34l-.38-40.22V127.41H37.58V263.34H63.9s-.06-22.18,3.19-22.25C71.31,241,71,263.34,71,263.34Z"/><path class="cls-5" d="M51.07,127.41H84.81v2.12A16.92,16.92,0,0,1,67.94,146.4h0a16.92,16.92,0,0,1-16.87-16.87Z"/><path class="cls-2" d="M67.56,81.09h0A13.75,13.75,0,0,1,81.26,94.8v31.41a13.75,13.75,0,0,1-13.7,13.71h0a13.75,13.75,0,0,1-13.71-13.71V94.8A13.75,13.75,0,0,1,67.56,81.09Z"/><path class="cls-8" d="M67.56,6.53c-70.87,0-61,94.35-13.68,109.93,0-.16,0-.31,0-.47,0-11.78,27.41-11.78,27.41,0,0,.16,0,.31,0,.47C128.6,100.88,138.42,6.53,67.56,6.53Z"/><path class="cls-9" d="M83.58,69.41c2,0,3.72-3.06,3.72-6.82s-1.67-6.82-3.72-6.82-3.72,3.07-3.72,6.82S81.53,69.41,83.58,69.41Z"/><path class="cls-9" d="M51.53,69.41c2,0,3.72-3.06,3.72-6.82s-1.67-6.82-3.72-6.82-3.72,3.07-3.72,6.82S49.48,69.41,51.53,69.41Z"/><path class="cls-9" d="M56.47,44.37c-3.58-2.54-9.56-.78-12.56,2.56-1.51,1.68-.21,1.81.81.86a9.64,9.64,0,0,1,11-1.52C57.6,47.15,58.45,45.78,56.47,44.37Z"/><path class="cls-9" d="M78.82,44.37c3.58-2.54,9.56-.78,12.56,2.56,1.51,1.68.21,1.81-.81.86a9.64,9.64,0,0,0-11-1.52C77.69,47.15,76.84,45.78,78.82,44.37Z"/><path class="cls-10" d="M53.88,116.46c.74,11.13,26.61,11.13,27.35,0a43.79,43.79,0,0,1-27.35,0Z"/><path class="cls-4" d="M86.91,90.86c-9,6.12-28.37,6.34-38.71,0A79.25,79.25,0,0,0,86.91,90.86Z"/><path class="cls-4" d="M76.55,97c-3.35,4.55-14.43,4.48-18,0A26.36,26.36,0,0,0,76.55,97Z"/><path class="cls-1" d="M95,11.43C88.23,33.52,33,60.55,12.74,50.37,11.19-1.86,76.57-10.42,95,11.43Z"/><path class="cls-11" d="M10.71,41.78s51.63-41,110.63,0c0,0-10.9-42.95-54.6-41.54S18.24,22.6,10.71,41.78Z"/><path class="cls-12" d="M17,26.39s47.49-16.64,97.51,0c0,0-11.57-23-41.73-26.19,0,0-6,5.31-11,.29C61.78.49,27.83,0,17,26.39Z"/><ellipse class="cls-13" cx="45.88" cy="10.55" rx="16.61" ry="8.68" transform="translate(-1.11 7.71) rotate(-9.5)"/><ellipse class="cls-14" cx="45.74" cy="8.22" rx="16.61" ry="7.85" transform="translate(-0.73 7.66) rotate(-9.5)"/><ellipse class="cls-13" cx="86.66" cy="10.71" rx="8.68" ry="16.61" transform="translate(61.8 94.41) rotate(-80.5)"/><ellipse class="cls-14" cx="86.8" cy="8.34" rx="7.81" ry="16.61" transform="translate(64.26 92.57) rotate(-80.5)"/><path class="cls-11" d="M13.39,39.87S5.72,56.05,9.6,83.76s-6.08,33.79-6.08,33.79-4.27.64-2.59-2.2,6.5-12.69,6-17.48S6.89,87.64,5.2,73.27,8,43.7,10.71,41.78Z"/><path class="cls-11" d="M117.77,38.24s7.67,16.19,3.79,43.89,6.09,33.79,6.09,33.79,4.27.65,2.59-2.2-6.51-12.69-6-17.48S124.28,86,126,71.64s-2.82-29.56-5.5-31.48Z"/><circle class="cls-15" cx="51.53" cy="62.59" r="10.7"/><circle class="cls-15" cx="83.58" cy="62.59" r="10.7"/><path class="cls-16" d="M62.23,62.59s5.85-5.91,10.65,0"/><path class="cls-17" d="M64.76,93.2V96a.49.49,0,0,0,.48.48H67a.52.52,0,0,0,.52-.52V93.24Z"/><path class="cls-17" d="M68.29,93.2v2.72a.52.52,0,0,0,.52.53H70.5A.5.5,0,0,0,71,96V93.24Z"/><text class="cls-18" transform="translate(55.55 193.76)">2</text></g></g></svg>